<svg width="38" height="38" viewBox="0 0 38 38" fill="none" xmlns="http://www.w3.org/2000/svg">
<g filter="url(#filter0_dd_13001_401)">
<rect x="3.1" y="2.1" width="31.8" height="31.8" rx="7.9" fill="white"/>
<rect x="3.1" y="2.1" width="31.8" height="31.8" rx="7.9" fill="url(#paint0_linear_13001_401)"/>
<rect x="3.1" y="2.1" width="31.8" height="31.8" rx="7.9" stroke="#D0D5DD" stroke-width="0.2"/>
<g clip-path="url(#clip0_13001_401)">
<path d="M30.1116 24.6056C30.0154 23.5088 29.528 22.4832 28.7382 21.7162C27.9484 20.9492 26.909 20.4918 25.8099 20.4278C24.9437 20.3711 24.0787 20.5553 23.3106 20.9597C22.958 21.1441 22.5568 21.2144 22.1626 21.161C21.7683 21.1076 21.4003 20.9331 21.1094 20.6617L20.5407 20.1297C20.4764 20.0746 20.4308 20.0009 20.4102 19.9187C20.3897 19.8365 20.3952 19.75 20.4261 19.6711C20.4944 19.4798 20.5285 19.278 20.527 19.0749C20.5238 18.7088 20.4112 18.352 20.2036 18.0505C19.9961 17.7489 19.703 17.5163 19.3621 17.3827C19.2824 17.3521 19.2139 17.298 19.1656 17.2276C19.1172 17.1571 19.0914 17.0737 19.0916 16.9883V16.7544C19.0986 16.3824 19.2186 16.0213 19.4356 15.7191C19.6527 15.4168 19.9565 15.1878 20.3068 15.0622C21.1985 14.7404 21.9649 14.1437 22.4957 13.3583C23.0265 12.5729 23.2941 11.6392 23.2602 10.6918C23.1757 9.50918 22.6401 8.40419 21.764 7.6053C20.8879 6.80641 19.7383 6.37471 18.5529 6.39944C17.3675 6.42418 16.2369 6.90345 15.3948 7.73819C14.5528 8.57293 14.0637 9.6993 14.0287 10.8844C14.0368 11.8018 14.3261 12.6947 14.8574 13.4425C15.3888 14.1904 16.1367 14.7573 17.0004 15.0668C17.3513 15.199 17.6534 15.4356 17.8657 15.7447C18.0781 16.0539 18.1906 16.4207 18.1881 16.7957V17.025C18.1882 17.1104 18.1624 17.1938 18.1141 17.2643C18.0658 17.3347 17.9973 17.3888 17.9176 17.4194C17.5767 17.553 17.2836 17.7856 17.076 18.0872C16.8684 18.3887 16.7558 18.7455 16.7527 19.1116C16.7505 19.3381 16.7942 19.5628 16.8811 19.772C16.9099 19.8504 16.9152 19.9355 16.8965 20.0169C16.8778 20.0984 16.8358 20.1726 16.7757 20.2306L16.2574 20.7121C15.9609 20.9817 15.5876 21.1518 15.1896 21.1987C14.7916 21.2456 14.3889 21.1668 14.0379 20.9735C13.2708 20.5652 12.406 20.3763 11.5385 20.4278C10.3521 20.502 9.24365 21.0444 8.45716 21.9359C7.67066 22.8273 7.27049 23.9946 7.34468 25.1811C7.41888 26.3676 7.96135 27.476 8.85277 28.2625C9.74419 29.049 10.9115 29.4491 12.098 29.3749C13.1837 29.3149 14.2127 28.8711 15.0014 28.1227C15.7902 27.3742 16.2873 26.3699 16.4042 25.2889C16.4597 24.6677 16.3799 24.0419 16.1703 23.4545C16.0637 23.1277 16.0533 22.7772 16.1403 22.4446C16.2273 22.1121 16.408 21.8116 16.661 21.5788L17.4039 20.8864C17.4687 20.8277 17.5488 20.7888 17.6349 20.7742C17.7211 20.7596 17.8096 20.7699 17.89 20.8038C18.131 20.8977 18.3882 20.9429 18.6467 20.9368C18.936 20.9374 19.2216 20.8715 19.4814 20.7442C19.5631 20.7067 19.6541 20.6942 19.743 20.708C19.8319 20.7219 19.9147 20.7616 19.9812 20.8222L20.6691 21.4642C20.927 21.7023 21.1082 22.0116 21.1899 22.3529C21.2715 22.6942 21.2499 23.0521 21.1277 23.3811C20.9438 23.877 20.8521 24.4023 20.8571 24.9312C20.9003 26.1584 21.4292 27.3182 22.3275 28.1554C23.2258 28.9926 24.4199 29.4387 25.6471 29.3956C26.8744 29.3524 28.0342 28.8235 28.8714 27.9252C29.7086 27.0269 30.1547 25.8328 30.1116 24.6056ZM14.3497 25.165C14.2774 25.7395 14.0103 26.2718 13.5931 26.6732C13.1758 27.0746 12.6336 27.3209 12.0567 27.3709C11.7226 27.426 11.3808 27.4124 11.0521 27.331C10.7234 27.2495 10.4148 27.1018 10.1451 26.897C9.87543 26.6922 9.65037 26.4345 9.48367 26.1397C9.31698 25.845 9.21216 25.5193 9.17562 25.1826C9.13908 24.846 9.17159 24.5054 9.27116 24.1817C9.37074 23.8581 9.53528 23.5581 9.75473 23.3002C9.97418 23.0423 10.2439 22.8319 10.5475 22.6818C10.851 22.5317 11.182 22.4451 11.5202 22.4272C11.895 22.3804 12.2755 22.4182 12.6338 22.5379C12.9921 22.6575 13.319 22.856 13.5905 23.1187C13.8619 23.3813 14.071 23.7015 14.2024 24.0556C14.3338 24.4098 14.3841 24.7889 14.3497 25.165ZM18.367 13.393C17.7943 13.3398 17.2571 13.0926 16.8442 12.6922C16.4313 12.2919 16.1677 11.7624 16.0969 11.1917C16.0258 10.5155 16.2262 9.83865 16.6541 9.31016C17.0819 8.78167 17.7022 8.4448 18.3784 8.37365C19.0547 8.30249 19.7315 8.50289 20.26 8.93076C20.7885 9.35862 21.1253 9.97891 21.1965 10.6551C21.2309 11.0313 21.1806 11.4104 21.0492 11.7645C20.9178 12.1187 20.7087 12.4389 20.4373 12.7015C20.1658 12.9642 19.8389 13.1627 19.4806 13.2823C19.1223 13.402 18.7418 13.4398 18.367 13.393ZM28.0433 25.165C28.0048 25.6502 27.829 26.1144 27.5364 26.5034C27.2439 26.8923 26.8466 27.1899 26.3911 27.3614C25.9356 27.533 25.4407 27.5712 24.9643 27.4718C24.4878 27.3725 24.0495 27.1395 23.7006 26.8002C23.3517 26.4609 23.1065 26.0292 22.9939 25.5557C22.8812 25.0823 22.9057 24.5865 23.0644 24.1264C23.2231 23.6663 23.5095 23.2609 23.8901 22.9575C24.2708 22.6542 24.7299 22.4655 25.2138 22.4135C25.5895 22.3681 25.9706 22.4073 26.3292 22.5284C26.6878 22.6494 27.0148 22.8492 27.2861 23.1131C27.5574 23.3769 27.7663 23.6982 27.8973 24.0532C28.0283 24.4083 28.0782 24.7882 28.0433 25.165Z" fill="#212121"/>
</g>
</g>
<defs>
<filter id="filter0_dd_13001_401" x="0" y="0" width="38" height="38" filterUnits="userSpaceOnUse" color-interpolation-filters="sRGB">
<feFlood flood-opacity="0" result="BackgroundImageFix"/>
<feColorMatrix in="SourceAlpha" type="matrix" values="0 0 0 0 0 0 0 0 0 0 0 0 0 0 0 0 0 0 127 0" result="hardAlpha"/>
<feOffset dy="1"/>
<feGaussianBlur stdDeviation="1"/>
<feColorMatrix type="matrix" values="0 0 0 0 0.0627451 0 0 0 0 0.0941176 0 0 0 0 0.156863 0 0 0 0.06 0"/>
<feBlend mode="normal" in2="BackgroundImageFix" result="effect1_dropShadow_13001_401"/>
<feColorMatrix in="SourceAlpha" type="matrix" values="0 0 0 0 0 0 0 0 0 0 0 0 0 0 0 0 0 0 127 0" result="hardAlpha"/>
<feOffset dy="1"/>
<feGaussianBlur stdDeviation="1.5"/>
<feColorMatrix type="matrix" values="0 0 0 0 0.0627451 0 0 0 0 0.0941176 0 0 0 0 0.156863 0 0 0 0.1 0"/>
<feBlend mode="normal" in2="effect1_dropShadow_13001_401" result="effect2_dropShadow_13001_401"/>
<feBlend mode="normal" in="SourceGraphic" in2="effect2_dropShadow_13001_401" result="shape"/>
</filter>
<linearGradient id="paint0_linear_13001_401" x1="19" y1="2" x2="19" y2="34" gradientUnits="userSpaceOnUse">
<stop stop-color="white"/>
<stop offset="1" stop-color="#D0D5DD"/>
</linearGradient>
<clipPath id="clip0_13001_401">
<rect width="24" height="24" fill="white" transform="translate(7 6)"/>
</clipPath>
</defs>
</svg>
